<mxfile host="app.diagrams.net" modified="2023-11-16T11:22:32.011Z" agent="Mozilla/5.0 (X11; Linux x86_64) AppleWebKit/537.36 (KHTML, like Gecko) Chrome/118.0.0.0 Safari/537.36" etag="QKN1TPgk1lx7WFTdZr54" version="22.1.2" type="github">
  <diagram id="C5RBs43oDa-KdzZeNtuy" name="Page-1">
    <mxGraphModel dx="2261" dy="798" grid="1" gridSize="10" guides="1" tooltips="1" connect="1" arrows="1" fold="1" page="1" pageScale="1" pageWidth="827" pageHeight="1169" math="0" shadow="0">
      <root>
        <mxCell id="WIyWlLk6GJQsqaUBKTNV-0" />
        <mxCell id="WIyWlLk6GJQsqaUBKTNV-1" parent="WIyWlLk6GJQsqaUBKTNV-0" />
        <mxCell id="WIyWlLk6GJQsqaUBKTNV-2" value="" style="rounded=0;html=1;jettySize=auto;orthogonalLoop=1;fontSize=11;endArrow=block;endFill=0;endSize=8;strokeWidth=1;shadow=0;labelBackgroundColor=none;edgeStyle=orthogonalEdgeStyle;" parent="WIyWlLk6GJQsqaUBKTNV-1" source="WIyWlLk6GJQsqaUBKTNV-3" target="WIyWlLk6GJQsqaUBKTNV-6" edge="1">
          <mxGeometry relative="1" as="geometry" />
        </mxCell>
        <mxCell id="WIyWlLk6GJQsqaUBKTNV-3" value="Lamp doesn&#39;t work" style="rounded=1;whiteSpace=wrap;html=1;fontSize=12;glass=0;strokeWidth=1;shadow=0;" parent="WIyWlLk6GJQsqaUBKTNV-1" vertex="1">
          <mxGeometry x="160" y="80" width="120" height="40" as="geometry" />
        </mxCell>
        <mxCell id="WIyWlLk6GJQsqaUBKTNV-4" value="Yes" style="rounded=0;html=1;jettySize=auto;orthogonalLoop=1;fontSize=11;endArrow=block;endFill=0;endSize=8;strokeWidth=1;shadow=0;labelBackgroundColor=none;edgeStyle=orthogonalEdgeStyle;" parent="WIyWlLk6GJQsqaUBKTNV-1" source="WIyWlLk6GJQsqaUBKTNV-6" target="WIyWlLk6GJQsqaUBKTNV-10" edge="1">
          <mxGeometry y="20" relative="1" as="geometry">
            <mxPoint as="offset" />
          </mxGeometry>
        </mxCell>
        <mxCell id="WIyWlLk6GJQsqaUBKTNV-5" value="No" style="edgeStyle=orthogonalEdgeStyle;rounded=0;html=1;jettySize=auto;orthogonalLoop=1;fontSize=11;endArrow=block;endFill=0;endSize=8;strokeWidth=1;shadow=0;labelBackgroundColor=none;" parent="WIyWlLk6GJQsqaUBKTNV-1" source="WIyWlLk6GJQsqaUBKTNV-6" target="WIyWlLk6GJQsqaUBKTNV-7" edge="1">
          <mxGeometry y="10" relative="1" as="geometry">
            <mxPoint as="offset" />
          </mxGeometry>
        </mxCell>
        <mxCell id="WIyWlLk6GJQsqaUBKTNV-6" value="Lamp&lt;br&gt;plugged in?" style="rhombus;whiteSpace=wrap;html=1;shadow=0;fontFamily=Helvetica;fontSize=12;align=center;strokeWidth=1;spacing=6;spacingTop=-4;" parent="WIyWlLk6GJQsqaUBKTNV-1" vertex="1">
          <mxGeometry x="170" y="170" width="100" height="80" as="geometry" />
        </mxCell>
        <mxCell id="WIyWlLk6GJQsqaUBKTNV-7" value="Plug in lamp" style="rounded=1;whiteSpace=wrap;html=1;fontSize=12;glass=0;strokeWidth=1;shadow=0;" parent="WIyWlLk6GJQsqaUBKTNV-1" vertex="1">
          <mxGeometry x="320" y="190" width="120" height="40" as="geometry" />
        </mxCell>
        <mxCell id="WIyWlLk6GJQsqaUBKTNV-8" value="No" style="rounded=0;html=1;jettySize=auto;orthogonalLoop=1;fontSize=11;endArrow=block;endFill=0;endSize=8;strokeWidth=1;shadow=0;labelBackgroundColor=none;edgeStyle=orthogonalEdgeStyle;" parent="WIyWlLk6GJQsqaUBKTNV-1" source="WIyWlLk6GJQsqaUBKTNV-10" target="WIyWlLk6GJQsqaUBKTNV-11" edge="1">
          <mxGeometry x="0.3333" y="20" relative="1" as="geometry">
            <mxPoint as="offset" />
          </mxGeometry>
        </mxCell>
        <mxCell id="WIyWlLk6GJQsqaUBKTNV-9" value="Yes" style="edgeStyle=orthogonalEdgeStyle;rounded=0;html=1;jettySize=auto;orthogonalLoop=1;fontSize=11;endArrow=block;endFill=0;endSize=8;strokeWidth=1;shadow=0;labelBackgroundColor=none;" parent="WIyWlLk6GJQsqaUBKTNV-1" source="WIyWlLk6GJQsqaUBKTNV-10" target="WIyWlLk6GJQsqaUBKTNV-12" edge="1">
          <mxGeometry y="10" relative="1" as="geometry">
            <mxPoint as="offset" />
          </mxGeometry>
        </mxCell>
        <mxCell id="WIyWlLk6GJQsqaUBKTNV-10" value="Bulb&lt;br&gt;burned out?" style="rhombus;whiteSpace=wrap;html=1;shadow=0;fontFamily=Helvetica;fontSize=12;align=center;strokeWidth=1;spacing=6;spacingTop=-4;" parent="WIyWlLk6GJQsqaUBKTNV-1" vertex="1">
          <mxGeometry x="170" y="290" width="100" height="80" as="geometry" />
        </mxCell>
        <mxCell id="WIyWlLk6GJQsqaUBKTNV-11" value="Repair Lamp" style="rounded=1;whiteSpace=wrap;html=1;fontSize=12;glass=0;strokeWidth=1;shadow=0;" parent="WIyWlLk6GJQsqaUBKTNV-1" vertex="1">
          <mxGeometry x="160" y="430" width="120" height="40" as="geometry" />
        </mxCell>
        <mxCell id="WIyWlLk6GJQsqaUBKTNV-12" value="Replace Bulb" style="rounded=1;whiteSpace=wrap;html=1;fontSize=12;glass=0;strokeWidth=1;shadow=0;" parent="WIyWlLk6GJQsqaUBKTNV-1" vertex="1">
          <mxGeometry x="320" y="310" width="120" height="40" as="geometry" />
        </mxCell>
        <mxCell id="gXG1q5lizFhrm3-i7tg3-0" value="&lt;b&gt;&lt;font color=&quot;#c11a1a&quot; style=&quot;font-size: 16px;&quot;&gt;&amp;nbsp; &amp;nbsp; &amp;nbsp; &amp;nbsp; &amp;nbsp; &amp;nbsp; &amp;nbsp; &amp;nbsp; &amp;nbsp; &amp;nbsp; &amp;nbsp; &amp;nbsp; &amp;nbsp; &amp;nbsp; &amp;nbsp; &amp;nbsp; &amp;nbsp; &amp;nbsp; &amp;nbsp; &amp;nbsp; &amp;nbsp;&amp;nbsp;&lt;u&gt;K8s Admission chain&lt;/u&gt;&lt;/font&gt;&lt;/b&gt;" style="shape=cube;whiteSpace=wrap;html=1;boundedLbl=1;backgroundOutline=1;darkOpacity=0.05;darkOpacity2=0.1;" vertex="1" parent="WIyWlLk6GJQsqaUBKTNV-1">
          <mxGeometry x="100" y="200" width="460" height="210" as="geometry" />
        </mxCell>
        <mxCell id="gXG1q5lizFhrm3-i7tg3-1" value="&lt;font style=&quot;font-size: 16px;&quot;&gt;AAQ Server Pod&lt;/font&gt;" style="rounded=1;whiteSpace=wrap;html=1;" vertex="1" parent="WIyWlLk6GJQsqaUBKTNV-1">
          <mxGeometry x="170" y="330" width="130" height="60" as="geometry" />
        </mxCell>
        <mxCell id="gXG1q5lizFhrm3-i7tg3-2" value="&lt;font color=&quot;#e60a0a&quot; style=&quot;font-size: 16px;&quot;&gt;&lt;span style=&quot;font-weight: bold;&quot;&gt;&amp;nbsp;&lt;/span&gt;&amp;nbsp; &amp;nbsp; &amp;nbsp; &amp;nbsp; &amp;nbsp; &amp;nbsp; &amp;nbsp; &amp;nbsp; &amp;nbsp; &amp;nbsp; &amp;nbsp;&lt;/font&gt;&lt;u style=&quot;font-weight: bold; font-size: 16px;&quot;&gt;&lt;font color=&quot;#e60a0a&quot; style=&quot;font-size: 16px;&quot;&gt;K8S etcd&lt;br&gt;&lt;/font&gt;&lt;br&gt;&lt;br&gt;&lt;br&gt;&lt;br&gt;&lt;br&gt;&lt;br&gt;&lt;br&gt;&lt;br&gt;&lt;br&gt;&lt;br&gt;&lt;br&gt;&lt;/u&gt;" style="shape=cylinder3;whiteSpace=wrap;html=1;boundedLbl=1;backgroundOutline=1;size=15;" vertex="1" parent="WIyWlLk6GJQsqaUBKTNV-1">
          <mxGeometry x="50" y="435" width="680" height="300" as="geometry" />
        </mxCell>
        <mxCell id="gXG1q5lizFhrm3-i7tg3-3" value="&lt;font style=&quot;font-size: 16px;&quot;&gt;Pod mutated with&lt;br&gt;Scheduling Gate&lt;/font&gt;" style="endArrow=classic;html=1;rounded=0;exitX=1;exitY=1;exitDx=0;exitDy=0;entryX=1;entryY=0.75;entryDx=0;entryDy=0;fillColor=#1ba1e2;strokeColor=#006EAF;strokeWidth=1;shape=flexArrow;" edge="1" parent="WIyWlLk6GJQsqaUBKTNV-1">
          <mxGeometry x="-0.0755" y="39" width="50" height="50" relative="1" as="geometry">
            <mxPoint x="300" y="387.5" as="sourcePoint" />
            <mxPoint x="245" y="653.75" as="targetPoint" />
            <Array as="points">
              <mxPoint x="320" y="500" />
            </Array>
            <mxPoint as="offset" />
          </mxGeometry>
        </mxCell>
        <mxCell id="gXG1q5lizFhrm3-i7tg3-4" value="" style="endArrow=classic;html=1;rounded=0;entryX=0.284;entryY=0.017;entryDx=0;entryDy=0;entryPerimeter=0;fillColor=#008a00;strokeColor=#005700;strokeWidth=3;shape=flexArrow;" edge="1" parent="WIyWlLk6GJQsqaUBKTNV-1">
          <mxGeometry width="50" height="50" relative="1" as="geometry">
            <mxPoint x="160" y="385.07" as="sourcePoint" />
            <mxPoint x="230.27999999999975" y="445.00000000000006" as="targetPoint" />
            <Array as="points" />
          </mxGeometry>
        </mxCell>
        <mxCell id="gXG1q5lizFhrm3-i7tg3-5" value="&lt;font style=&quot;font-size: 16px;&quot;&gt;Operation is valid&lt;/font&gt;" style="edgeLabel;html=1;align=center;verticalAlign=middle;resizable=0;points=[];" vertex="1" connectable="0" parent="gXG1q5lizFhrm3-i7tg3-4">
          <mxGeometry x="0.1036" y="-2" relative="1" as="geometry">
            <mxPoint x="32" as="offset" />
          </mxGeometry>
        </mxCell>
        <mxCell id="gXG1q5lizFhrm3-i7tg3-6" value="" style="curved=1;endArrow=classic;html=1;rounded=0;strokeWidth=3;fillColor=#008a00;strokeColor=#005700;shape=flexArrow;" edge="1" parent="WIyWlLk6GJQsqaUBKTNV-1">
          <mxGeometry width="50" height="50" relative="1" as="geometry">
            <mxPoint x="170" y="390" as="sourcePoint" />
            <mxPoint x="60" y="250" as="targetPoint" />
            <Array as="points">
              <mxPoint x="120" y="440" />
              <mxPoint x="90" y="450" />
              <mxPoint x="70" y="440" />
              <mxPoint x="60" y="408" />
              <mxPoint x="60" y="380" />
              <mxPoint x="60" y="330" />
              <mxPoint x="60" y="290" />
              <mxPoint x="60" y="280" />
            </Array>
          </mxGeometry>
        </mxCell>
        <mxCell id="gXG1q5lizFhrm3-i7tg3-7" value="&lt;font style=&quot;font-size: 16px;&quot;&gt;Applications&lt;br&gt;ResourceQuota&lt;br&gt;&amp;nbsp;Operation is not valid&amp;nbsp;&lt;/font&gt;" style="edgeLabel;html=1;align=center;verticalAlign=middle;resizable=0;points=[];" vertex="1" connectable="0" parent="gXG1q5lizFhrm3-i7tg3-6">
          <mxGeometry x="0.127" y="-2" relative="1" as="geometry">
            <mxPoint x="-92" y="-38" as="offset" />
          </mxGeometry>
        </mxCell>
        <mxCell id="gXG1q5lizFhrm3-i7tg3-8" value="&lt;font style=&quot;font-size: 16px;&quot;&gt;Deny&lt;/font&gt;" style="rounded=1;whiteSpace=wrap;html=1;" vertex="1" parent="WIyWlLk6GJQsqaUBKTNV-1">
          <mxGeometry x="10" y="230" width="80" height="20" as="geometry" />
        </mxCell>
        <mxCell id="gXG1q5lizFhrm3-i7tg3-9" value="&lt;br&gt;&lt;br&gt;&lt;br&gt;" style="rounded=1;whiteSpace=wrap;html=1;" vertex="1" parent="WIyWlLk6GJQsqaUBKTNV-1">
          <mxGeometry x="75" y="570" width="170" height="115" as="geometry" />
        </mxCell>
        <mxCell id="gXG1q5lizFhrm3-i7tg3-10" value="&lt;div style=&quot;font-size: 16px;&quot;&gt;&lt;b style=&quot;background-color: initial; border-color: var(--border-color);&quot;&gt;&lt;u style=&quot;border-color: var(--border-color);&quot;&gt;&lt;font color=&quot;#c43127&quot; style=&quot;font-size: 16px;&quot;&gt;AAQ Controller Pod&lt;/font&gt;&lt;/u&gt;&lt;/b&gt;&lt;/div&gt;&lt;div style=&quot;font-size: 16px;&quot;&gt;&lt;b style=&quot;background-color: initial; border-color: var(--border-color);&quot;&gt;&lt;u style=&quot;border-color: var(--border-color);&quot;&gt;&lt;font style=&quot;font-size: 16px;&quot;&gt;&lt;br&gt;&lt;/font&gt;&lt;/u&gt;&lt;/b&gt;&lt;/div&gt;&lt;div style=&quot;font-size: 16px;&quot;&gt;&lt;b style=&quot;background-color: initial; border-color: var(--border-color);&quot;&gt;&lt;u style=&quot;border-color: var(--border-color);&quot;&gt;&lt;font style=&quot;font-size: 16px;&quot;&gt;&lt;br&gt;&lt;/font&gt;&lt;/u&gt;&lt;/b&gt;&lt;/div&gt;&lt;div style=&quot;font-size: 16px;&quot;&gt;&lt;b style=&quot;background-color: initial; border-color: var(--border-color);&quot;&gt;&lt;u style=&quot;border-color: var(--border-color);&quot;&gt;&lt;font style=&quot;font-size: 16px;&quot;&gt;&lt;br&gt;&lt;/font&gt;&lt;/u&gt;&lt;/b&gt;&lt;/div&gt;&lt;div style=&quot;font-size: 16px;&quot;&gt;&lt;b style=&quot;background-color: initial; border-color: var(--border-color);&quot;&gt;&lt;u style=&quot;border-color: var(--border-color);&quot;&gt;&lt;font style=&quot;font-size: 16px;&quot;&gt;&lt;br&gt;&lt;/font&gt;&lt;/u&gt;&lt;/b&gt;&lt;/div&gt;&lt;div style=&quot;font-size: 16px;&quot;&gt;&lt;b style=&quot;background-color: initial; border-color: var(--border-color);&quot;&gt;&lt;u style=&quot;border-color: var(--border-color);&quot;&gt;&lt;font style=&quot;font-size: 16px;&quot;&gt;&lt;br&gt;&lt;/font&gt;&lt;/u&gt;&lt;/b&gt;&lt;/div&gt;&lt;div style=&quot;font-size: 16px;&quot;&gt;&lt;b style=&quot;background-color: initial; border-color: var(--border-color);&quot;&gt;&lt;u style=&quot;border-color: var(--border-color);&quot;&gt;&lt;font style=&quot;font-size: 16px;&quot;&gt;&lt;br&gt;&lt;/font&gt;&lt;/u&gt;&lt;/b&gt;&lt;/div&gt;&lt;div style=&quot;font-size: 16px;&quot;&gt;&lt;b style=&quot;background-color: initial; border-color: var(--border-color);&quot;&gt;&lt;u style=&quot;border-color: var(--border-color);&quot;&gt;&lt;font style=&quot;font-size: 16px;&quot;&gt;&lt;br&gt;&lt;/font&gt;&lt;/u&gt;&lt;/b&gt;&lt;/div&gt;&lt;div style=&quot;font-size: 16px;&quot;&gt;&lt;b style=&quot;background-color: initial; border-color: var(--border-color);&quot;&gt;&lt;u style=&quot;border-color: var(--border-color);&quot;&gt;&lt;font style=&quot;font-size: 16px;&quot;&gt;&lt;br&gt;&lt;/font&gt;&lt;/u&gt;&lt;/b&gt;&lt;/div&gt;&lt;div style=&quot;font-size: 16px;&quot;&gt;&lt;b style=&quot;background-color: initial; border-color: var(--border-color);&quot;&gt;&lt;u style=&quot;border-color: var(--border-color);&quot;&gt;&lt;font style=&quot;font-size: 16px;&quot;&gt;&lt;br&gt;&lt;/font&gt;&lt;/u&gt;&lt;/b&gt;&lt;/div&gt;&lt;div style=&quot;font-size: 16px;&quot;&gt;&lt;b style=&quot;background-color: initial; border-color: var(--border-color);&quot;&gt;&lt;u style=&quot;border-color: var(--border-color);&quot;&gt;&lt;br&gt;&lt;/u&gt;&lt;/b&gt;&lt;/div&gt;" style="shape=ext;double=1;rounded=1;whiteSpace=wrap;html=1;align=left;" vertex="1" parent="WIyWlLk6GJQsqaUBKTNV-1">
          <mxGeometry x="-325" y="770" width="980" height="340" as="geometry" />
        </mxCell>
        <mxCell id="gXG1q5lizFhrm3-i7tg3-11" value="&lt;u&gt;&lt;font style=&quot;font-size: 16px;&quot;&gt;AAQ Gate Controller&lt;/font&gt;&lt;/u&gt;" style="rounded=1;whiteSpace=wrap;html=1;fillColor=#0050ef;fontColor=#ffffff;strokeColor=#001DBC;" vertex="1" parent="WIyWlLk6GJQsqaUBKTNV-1">
          <mxGeometry x="-200" y="880" width="120" height="50" as="geometry" />
        </mxCell>
        <mxCell id="gXG1q5lizFhrm3-i7tg3-12" value="pod1" style="rounded=1;whiteSpace=wrap;html=1;fillColor=#f8cecc;strokeColor=#b85450;" vertex="1" parent="WIyWlLk6GJQsqaUBKTNV-1">
          <mxGeometry x="80" y="650" width="40" height="30" as="geometry" />
        </mxCell>
        <mxCell id="gXG1q5lizFhrm3-i7tg3-13" value="pod2" style="rounded=1;whiteSpace=wrap;html=1;fillColor=#f8cecc;strokeColor=#b85450;" vertex="1" parent="WIyWlLk6GJQsqaUBKTNV-1">
          <mxGeometry x="120" y="650" width="40" height="30" as="geometry" />
        </mxCell>
        <mxCell id="gXG1q5lizFhrm3-i7tg3-14" value="pod3" style="rounded=1;whiteSpace=wrap;html=1;fillColor=#f8cecc;strokeColor=#b85450;" vertex="1" parent="WIyWlLk6GJQsqaUBKTNV-1">
          <mxGeometry x="160" y="650" width="40" height="30" as="geometry" />
        </mxCell>
        <mxCell id="gXG1q5lizFhrm3-i7tg3-15" value="..." style="text;html=1;strokeColor=none;fillColor=none;align=center;verticalAlign=middle;whiteSpace=wrap;rounded=0;" vertex="1" parent="WIyWlLk6GJQsqaUBKTNV-1">
          <mxGeometry x="180" y="650" width="60" height="30" as="geometry" />
        </mxCell>
        <mxCell id="gXG1q5lizFhrm3-i7tg3-16" value="pod n" style="rounded=1;whiteSpace=wrap;html=1;fillColor=#f8cecc;strokeColor=#b85450;" vertex="1" parent="WIyWlLk6GJQsqaUBKTNV-1">
          <mxGeometry x="215" y="650" width="30" height="30" as="geometry" />
        </mxCell>
        <mxCell id="gXG1q5lizFhrm3-i7tg3-17" value="pod1" style="rounded=1;whiteSpace=wrap;html=1;fillColor=#d5e8d4;strokeColor=#82b366;" vertex="1" parent="WIyWlLk6GJQsqaUBKTNV-1">
          <mxGeometry x="75" y="590" width="40" height="30" as="geometry" />
        </mxCell>
        <mxCell id="gXG1q5lizFhrm3-i7tg3-18" value="pod2" style="rounded=1;whiteSpace=wrap;html=1;fillColor=#d5e8d4;strokeColor=#82b366;" vertex="1" parent="WIyWlLk6GJQsqaUBKTNV-1">
          <mxGeometry x="115" y="590" width="40" height="30" as="geometry" />
        </mxCell>
        <mxCell id="gXG1q5lizFhrm3-i7tg3-19" value="&lt;span style=&quot;color: rgb(0, 0, 0); font-family: Helvetica; font-size: 12px; font-style: normal; font-variant-ligatures: normal; font-variant-caps: normal; font-weight: 400; letter-spacing: normal; orphans: 2; text-align: center; text-indent: 0px; text-transform: none; widows: 2; word-spacing: 0px; -webkit-text-stroke-width: 0px; background-color: rgb(251, 251, 251); text-decoration-thickness: initial; text-decoration-style: initial; text-decoration-color: initial; float: none; display: inline !important;&quot;&gt;...&lt;/span&gt;" style="text;whiteSpace=wrap;html=1;" vertex="1" parent="WIyWlLk6GJQsqaUBKTNV-1">
          <mxGeometry x="195" y="590" width="20" height="30" as="geometry" />
        </mxCell>
        <mxCell id="gXG1q5lizFhrm3-i7tg3-20" value="pod3" style="rounded=1;whiteSpace=wrap;html=1;fillColor=#d5e8d4;strokeColor=#82b366;" vertex="1" parent="WIyWlLk6GJQsqaUBKTNV-1">
          <mxGeometry x="155" y="590" width="40" height="30" as="geometry" />
        </mxCell>
        <mxCell id="gXG1q5lizFhrm3-i7tg3-21" value="pod n" style="rounded=1;whiteSpace=wrap;html=1;fillColor=#d5e8d4;strokeColor=#82b366;" vertex="1" parent="WIyWlLk6GJQsqaUBKTNV-1">
          <mxGeometry x="210" y="590" width="30" height="30" as="geometry" />
        </mxCell>
        <mxCell id="gXG1q5lizFhrm3-i7tg3-22" value="&lt;u&gt;&lt;b&gt;&lt;font style=&quot;font-size: 16px;&quot;&gt;Nodes&lt;/font&gt;&lt;/b&gt;&lt;/u&gt;" style="ellipse;shape=cloud;whiteSpace=wrap;html=1;" vertex="1" parent="WIyWlLk6GJQsqaUBKTNV-1">
          <mxGeometry x="-450" y="470" width="250" height="200" as="geometry" />
        </mxCell>
        <mxCell id="gXG1q5lizFhrm3-i7tg3-23" value="&lt;font style=&quot;font-size: 16px;&quot;&gt;node1&lt;/font&gt;" style="rounded=1;whiteSpace=wrap;html=1;" vertex="1" parent="WIyWlLk6GJQsqaUBKTNV-1">
          <mxGeometry x="-400" y="530" width="50" height="20" as="geometry" />
        </mxCell>
        <mxCell id="gXG1q5lizFhrm3-i7tg3-24" value="&lt;font style=&quot;font-size: 16px;&quot;&gt;node3&lt;/font&gt;" style="rounded=1;whiteSpace=wrap;html=1;" vertex="1" parent="WIyWlLk6GJQsqaUBKTNV-1">
          <mxGeometry x="-300" y="540" width="50" height="20" as="geometry" />
        </mxCell>
        <mxCell id="gXG1q5lizFhrm3-i7tg3-25" value="&lt;font style=&quot;font-size: 16px;&quot;&gt;node2&lt;/font&gt;" style="rounded=1;whiteSpace=wrap;html=1;" vertex="1" parent="WIyWlLk6GJQsqaUBKTNV-1">
          <mxGeometry x="-330" y="595" width="50" height="20" as="geometry" />
        </mxCell>
        <mxCell id="gXG1q5lizFhrm3-i7tg3-26" value="" style="endArrow=none;html=1;rounded=0;entryX=1.006;entryY=0.6;entryDx=0;entryDy=0;entryPerimeter=0;exitX=-0.006;exitY=0.607;exitDx=0;exitDy=0;exitPerimeter=0;" edge="1" parent="WIyWlLk6GJQsqaUBKTNV-1" source="gXG1q5lizFhrm3-i7tg3-9" target="gXG1q5lizFhrm3-i7tg3-9">
          <mxGeometry width="50" height="50" relative="1" as="geometry">
            <mxPoint x="180" y="630" as="sourcePoint" />
            <mxPoint x="230" y="580" as="targetPoint" />
            <Array as="points" />
          </mxGeometry>
        </mxCell>
        <mxCell id="gXG1q5lizFhrm3-i7tg3-27" value="" style="endArrow=classic;html=1;rounded=0;exitX=0;exitY=0.25;exitDx=0;exitDy=0;entryX=0.96;entryY=0.7;entryDx=0;entryDy=0;entryPerimeter=0;strokeWidth=3;fillColor=#6a00ff;strokeColor=#3700CC;" edge="1" parent="WIyWlLk6GJQsqaUBKTNV-1" source="gXG1q5lizFhrm3-i7tg3-9" target="gXG1q5lizFhrm3-i7tg3-22">
          <mxGeometry width="50" height="50" relative="1" as="geometry">
            <mxPoint x="120" y="580.9333333333334" as="sourcePoint" />
            <mxPoint x="-170" y="550" as="targetPoint" />
          </mxGeometry>
        </mxCell>
        <mxCell id="gXG1q5lizFhrm3-i7tg3-28" value="" style="endArrow=classic;html=1;rounded=0;exitX=0.012;exitY=0.104;exitDx=0;exitDy=0;entryX=0.936;entryY=0.365;entryDx=0;entryDy=0;entryPerimeter=0;exitPerimeter=0;strokeWidth=3;fillColor=#6a00ff;strokeColor=#3700CC;" edge="1" parent="WIyWlLk6GJQsqaUBKTNV-1" source="gXG1q5lizFhrm3-i7tg3-9" target="gXG1q5lizFhrm3-i7tg3-22">
          <mxGeometry width="50" height="50" relative="1" as="geometry">
            <mxPoint x="75" y="571.5" as="sourcePoint" />
            <mxPoint x="-324" y="390" as="targetPoint" />
            <Array as="points" />
          </mxGeometry>
        </mxCell>
        <mxCell id="gXG1q5lizFhrm3-i7tg3-29" value="&lt;b&gt;&lt;u&gt;&lt;font style=&quot;font-size: 16px;&quot;&gt;scheduler&lt;/font&gt;&lt;/u&gt;&lt;/b&gt;" style="rhombus;whiteSpace=wrap;html=1;" vertex="1" parent="WIyWlLk6GJQsqaUBKTNV-1">
          <mxGeometry x="-200" y="517.5" width="110" height="105" as="geometry" />
        </mxCell>
        <mxCell id="gXG1q5lizFhrm3-i7tg3-30" value="&lt;font style=&quot;font-size: 16px;&quot;&gt;&lt;u&gt;&lt;b&gt;API Requests&lt;br&gt;&lt;/b&gt;&lt;/u&gt;&lt;br&gt;&lt;br&gt;&lt;br&gt;&lt;/font&gt;" style="ellipse;shape=cloud;whiteSpace=wrap;html=1;" vertex="1" parent="WIyWlLk6GJQsqaUBKTNV-1">
          <mxGeometry x="20" y="10" width="400" height="180" as="geometry" />
        </mxCell>
        <mxCell id="gXG1q5lizFhrm3-i7tg3-31" value="&lt;font style=&quot;font-size: 16px;&quot;&gt;pod creation&lt;/font&gt;" style="rounded=1;whiteSpace=wrap;html=1;fontSize=12;glass=0;strokeWidth=1;shadow=0;" vertex="1" parent="WIyWlLk6GJQsqaUBKTNV-1">
          <mxGeometry x="270" y="90" width="120" height="40" as="geometry" />
        </mxCell>
        <mxCell id="gXG1q5lizFhrm3-i7tg3-32" value="&lt;font style=&quot;font-size: 15px;&quot;&gt;ApplicationResourceQuota creation/update&lt;/font&gt;" style="rounded=1;whiteSpace=wrap;html=1;fontSize=12;glass=0;strokeWidth=1;shadow=0;" vertex="1" parent="WIyWlLk6GJQsqaUBKTNV-1">
          <mxGeometry x="85" y="90" width="180" height="50" as="geometry" />
        </mxCell>
        <mxCell id="gXG1q5lizFhrm3-i7tg3-33" value="&lt;font style=&quot;font-size: 16px;&quot;&gt;Work Queue&amp;nbsp;&lt;/font&gt;" style="swimlane;fontStyle=0;childLayout=stackLayout;horizontal=1;startSize=30;horizontalStack=0;resizeParent=1;resizeParentMax=0;resizeLast=0;collapsible=1;marginBottom=0;whiteSpace=wrap;html=1;" vertex="1" parent="WIyWlLk6GJQsqaUBKTNV-1">
          <mxGeometry x="177.5" y="480" width="105" height="90" as="geometry" />
        </mxCell>
        <mxCell id="gXG1q5lizFhrm3-i7tg3-34" value="&lt;font style=&quot;font-size: 16px;&quot;&gt;pod 1&lt;/font&gt;" style="text;strokeColor=none;fillColor=none;align=left;verticalAlign=middle;spacingLeft=4;spacingRight=4;overflow=hidden;points=[[0,0.5],[1,0.5]];portConstraint=eastwest;rotatable=0;whiteSpace=wrap;html=1;" vertex="1" parent="gXG1q5lizFhrm3-i7tg3-33">
          <mxGeometry y="30" width="105" height="30" as="geometry" />
        </mxCell>
        <mxCell id="gXG1q5lizFhrm3-i7tg3-35" value="&lt;font style=&quot;font-size: 16px;&quot;&gt;pod 2...&lt;/font&gt;" style="text;strokeColor=none;fillColor=none;align=left;verticalAlign=middle;spacingLeft=4;spacingRight=4;overflow=hidden;points=[[0,0.5],[1,0.5]];portConstraint=eastwest;rotatable=0;whiteSpace=wrap;html=1;" vertex="1" parent="gXG1q5lizFhrm3-i7tg3-33">
          <mxGeometry y="60" width="105" height="30" as="geometry" />
        </mxCell>
        <mxCell id="gXG1q5lizFhrm3-i7tg3-36" value="&lt;font style=&quot;font-size: 16px;&quot;&gt;K8s Evaluator For standard Pods&amp;nbsp;&lt;br&gt;&lt;br&gt;&lt;br&gt;&lt;u&gt;&lt;b&gt;Sidecar container&lt;br&gt;&lt;/b&gt;&lt;/u&gt;&amp;nbsp;Evaluators For applications specific pods&lt;/font&gt;" style="rounded=1;whiteSpace=wrap;html=1;" vertex="1" parent="WIyWlLk6GJQsqaUBKTNV-1">
          <mxGeometry x="15" y="790" width="170" height="150" as="geometry" />
        </mxCell>
        <mxCell id="gXG1q5lizFhrm3-i7tg3-37" value="" style="endArrow=none;html=1;rounded=0;entryX=1;entryY=0.5;entryDx=0;entryDy=0;exitX=0;exitY=0.5;exitDx=0;exitDy=0;" edge="1" parent="WIyWlLk6GJQsqaUBKTNV-1" source="gXG1q5lizFhrm3-i7tg3-36" target="gXG1q5lizFhrm3-i7tg3-36">
          <mxGeometry width="50" height="50" relative="1" as="geometry">
            <mxPoint x="160" y="890" as="sourcePoint" />
            <mxPoint x="200" y="840" as="targetPoint" />
            <Array as="points" />
          </mxGeometry>
        </mxCell>
        <mxCell id="gXG1q5lizFhrm3-i7tg3-38" value="&lt;font style=&quot;font-size: 15px;&quot;&gt;Applications ResourceQuotas&lt;/font&gt;" style="swimlane;fontStyle=0;childLayout=stackLayout;horizontal=1;startSize=30;horizontalStack=0;resizeParent=1;resizeParentMax=0;resizeLast=0;collapsible=1;marginBottom=0;whiteSpace=wrap;html=1;" vertex="1" parent="WIyWlLk6GJQsqaUBKTNV-1">
          <mxGeometry x="550" y="600" width="210" height="90" as="geometry" />
        </mxCell>
        <mxCell id="gXG1q5lizFhrm3-i7tg3-39" value="&lt;font style=&quot;font-size: 15px;&quot;&gt;arq 1&lt;/font&gt;" style="text;strokeColor=none;fillColor=none;align=left;verticalAlign=middle;spacingLeft=4;spacingRight=4;overflow=hidden;points=[[0,0.5],[1,0.5]];portConstraint=eastwest;rotatable=0;whiteSpace=wrap;html=1;" vertex="1" parent="gXG1q5lizFhrm3-i7tg3-38">
          <mxGeometry y="30" width="210" height="30" as="geometry" />
        </mxCell>
        <mxCell id="gXG1q5lizFhrm3-i7tg3-40" value="&lt;font style=&quot;font-size: 15px;&quot;&gt;arq 2...&lt;/font&gt;" style="text;strokeColor=none;fillColor=none;align=left;verticalAlign=middle;spacingLeft=4;spacingRight=4;overflow=hidden;points=[[0,0.5],[1,0.5]];portConstraint=eastwest;rotatable=0;whiteSpace=wrap;html=1;" vertex="1" parent="gXG1q5lizFhrm3-i7tg3-38">
          <mxGeometry y="60" width="210" height="30" as="geometry" />
        </mxCell>
        <mxCell id="gXG1q5lizFhrm3-i7tg3-41" value="&lt;font style=&quot;font-size: 15px;&quot;&gt;manged ResourceQuotas&lt;/font&gt;" style="swimlane;fontStyle=0;childLayout=stackLayout;horizontal=1;startSize=30;horizontalStack=0;resizeParent=1;resizeParentMax=0;resizeLast=0;collapsible=1;marginBottom=0;whiteSpace=wrap;html=1;" vertex="1" parent="WIyWlLk6GJQsqaUBKTNV-1">
          <mxGeometry x="430" y="505" width="190" height="80" as="geometry" />
        </mxCell>
        <mxCell id="gXG1q5lizFhrm3-i7tg3-42" value="&lt;font style=&quot;font-size: 16px;&quot;&gt;rq 1&lt;/font&gt;" style="text;strokeColor=none;fillColor=none;align=left;verticalAlign=middle;spacingLeft=4;spacingRight=4;overflow=hidden;points=[[0,0.5],[1,0.5]];portConstraint=eastwest;rotatable=0;whiteSpace=wrap;html=1;" vertex="1" parent="gXG1q5lizFhrm3-i7tg3-41">
          <mxGeometry y="30" width="190" height="20" as="geometry" />
        </mxCell>
        <mxCell id="gXG1q5lizFhrm3-i7tg3-43" value="&lt;font style=&quot;font-size: 16px;&quot;&gt;rq 2...&lt;/font&gt;" style="text;strokeColor=none;fillColor=none;align=left;verticalAlign=middle;spacingLeft=4;spacingRight=4;overflow=hidden;points=[[0,0.5],[1,0.5]];portConstraint=eastwest;rotatable=0;whiteSpace=wrap;html=1;" vertex="1" parent="gXG1q5lizFhrm3-i7tg3-41">
          <mxGeometry y="50" width="190" height="30" as="geometry" />
        </mxCell>
        <mxCell id="gXG1q5lizFhrm3-i7tg3-44" value="&lt;u&gt;&lt;font style=&quot;font-size: 16px;&quot;&gt;Applications ResourceQuota Controller&lt;/font&gt;&lt;/u&gt;" style="rounded=1;whiteSpace=wrap;html=1;fillColor=#0050ef;fontColor=#ffffff;strokeColor=#001DBC;" vertex="1" parent="WIyWlLk6GJQsqaUBKTNV-1">
          <mxGeometry x="245" y="960" width="125" height="60" as="geometry" />
        </mxCell>
        <mxCell id="gXG1q5lizFhrm3-i7tg3-45" value="" style="endArrow=classic;html=1;rounded=0;exitX=0;exitY=0.5;exitDx=0;exitDy=0;entryX=0.5;entryY=0;entryDx=0;entryDy=0;strokeWidth=1;fillColor=#a20025;strokeColor=#6F0000;shape=flexArrow;" edge="1" parent="WIyWlLk6GJQsqaUBKTNV-1" source="gXG1q5lizFhrm3-i7tg3-34" target="gXG1q5lizFhrm3-i7tg3-9">
          <mxGeometry width="50" height="50" relative="1" as="geometry">
            <mxPoint x="-10" y="670" as="sourcePoint" />
            <mxPoint x="-60" y="680" as="targetPoint" />
            <Array as="points" />
          </mxGeometry>
        </mxCell>
        <mxCell id="gXG1q5lizFhrm3-i7tg3-46" value="" style="endArrow=none;html=1;rounded=0;exitX=0;exitY=1;exitDx=0;exitDy=0;strokeWidth=3;fillColor=#008a00;strokeColor=#005700;shape=flexArrow;" edge="1" parent="WIyWlLk6GJQsqaUBKTNV-1" source="gXG1q5lizFhrm3-i7tg3-1">
          <mxGeometry width="50" height="50" relative="1" as="geometry">
            <mxPoint x="100" y="190" as="sourcePoint" />
            <mxPoint x="150" y="140" as="targetPoint" />
          </mxGeometry>
        </mxCell>
        <mxCell id="gXG1q5lizFhrm3-i7tg3-47" value="&lt;font style=&quot;font-size: 16px;&quot;&gt;validating webhook&lt;/font&gt;" style="rounded=1;whiteSpace=wrap;html=1;" vertex="1" parent="WIyWlLk6GJQsqaUBKTNV-1">
          <mxGeometry x="120" y="250" width="90" height="50" as="geometry" />
        </mxCell>
        <mxCell id="gXG1q5lizFhrm3-i7tg3-48" value="" style="endArrow=none;html=1;rounded=0;exitX=1.017;exitY=0.14;exitDx=0;exitDy=0;fillColor=#a20025;strokeColor=#6F0000;strokeWidth=3;exitPerimeter=0;entryX=0;entryY=0.153;entryDx=0;entryDy=0;entryPerimeter=0;shape=flexArrow;" edge="1" parent="WIyWlLk6GJQsqaUBKTNV-1" source="gXG1q5lizFhrm3-i7tg3-11" target="gXG1q5lizFhrm3-i7tg3-36">
          <mxGeometry width="50" height="50" relative="1" as="geometry">
            <mxPoint x="20" y="790" as="sourcePoint" />
            <mxPoint x="10" y="820" as="targetPoint" />
          </mxGeometry>
        </mxCell>
        <mxCell id="gXG1q5lizFhrm3-i7tg3-49" value="&lt;font style=&quot;font-size: 16px;&quot;&gt;Evaluate Pods&lt;/font&gt;" style="edgeLabel;html=1;align=center;verticalAlign=middle;resizable=0;points=[];" vertex="1" connectable="0" parent="gXG1q5lizFhrm3-i7tg3-48">
          <mxGeometry x="0.0667" y="2" relative="1" as="geometry">
            <mxPoint y="19" as="offset" />
          </mxGeometry>
        </mxCell>
        <mxCell id="gXG1q5lizFhrm3-i7tg3-50" value="" style="endArrow=none;html=1;rounded=0;exitX=1;exitY=1;exitDx=0;exitDy=0;strokeWidth=1;fillColor=#1ba1e2;strokeColor=#006EAF;shape=flexArrow;" edge="1" parent="WIyWlLk6GJQsqaUBKTNV-1" source="gXG1q5lizFhrm3-i7tg3-1">
          <mxGeometry width="50" height="50" relative="1" as="geometry">
            <mxPoint x="280" y="180" as="sourcePoint" />
            <mxPoint x="330" y="130" as="targetPoint" />
          </mxGeometry>
        </mxCell>
        <mxCell id="gXG1q5lizFhrm3-i7tg3-51" value="&lt;font style=&quot;font-size: 16px;&quot;&gt;mutating webhook&lt;/font&gt;" style="rounded=1;whiteSpace=wrap;html=1;" vertex="1" parent="WIyWlLk6GJQsqaUBKTNV-1">
          <mxGeometry x="240" y="260" width="100" height="40" as="geometry" />
        </mxCell>
        <mxCell id="gXG1q5lizFhrm3-i7tg3-52" value="" style="endArrow=none;html=1;rounded=0;entryX=0;entryY=0.5;entryDx=0;entryDy=0;fillColor=#a20025;strokeColor=#6F0000;strokeWidth=1;exitX=0.012;exitY=0.167;exitDx=0;exitDy=0;exitPerimeter=0;shape=flexArrow;" edge="1" parent="WIyWlLk6GJQsqaUBKTNV-1" source="gXG1q5lizFhrm3-i7tg3-36" target="gXG1q5lizFhrm3-i7tg3-34">
          <mxGeometry width="50" height="50" relative="1" as="geometry">
            <mxPoint x="10" y="810" as="sourcePoint" />
            <mxPoint x="-60" y="460" as="targetPoint" />
            <Array as="points">
              <mxPoint x="-80" y="470" />
            </Array>
          </mxGeometry>
        </mxCell>
        <mxCell id="gXG1q5lizFhrm3-i7tg3-53" value="&lt;div style=&quot;border-color: var(--border-color); font-size: 16px;&quot;&gt;&lt;font style=&quot;font-size: 16px;&quot;&gt;Add to work queue and ungate&amp;nbsp;&lt;/font&gt;&lt;/div&gt;&lt;div style=&quot;border-color: var(--border-color); font-size: 16px;&quot;&gt;&lt;font style=&quot;font-size: 16px;&quot;&gt;if we have enough quota&lt;/font&gt;&lt;/div&gt;" style="edgeLabel;html=1;align=center;verticalAlign=middle;resizable=0;points=[];" vertex="1" connectable="0" parent="gXG1q5lizFhrm3-i7tg3-52">
          <mxGeometry x="0.219" y="2" relative="1" as="geometry">
            <mxPoint as="offset" />
          </mxGeometry>
        </mxCell>
        <mxCell id="gXG1q5lizFhrm3-i7tg3-54" value="" style="endArrow=classic;html=1;rounded=0;entryX=0;entryY=1;entryDx=0;entryDy=0;fillColor=#a0522d;strokeColor=#6D1F00;strokeWidth=3;shape=link;" edge="1" parent="WIyWlLk6GJQsqaUBKTNV-1" target="gXG1q5lizFhrm3-i7tg3-12">
          <mxGeometry width="50" height="50" relative="1" as="geometry">
            <mxPoint x="-120" y="880" as="sourcePoint" />
            <mxPoint x="-70" y="830" as="targetPoint" />
          </mxGeometry>
        </mxCell>
        <mxCell id="gXG1q5lizFhrm3-i7tg3-55" value="&lt;font style=&quot;font-size: 16px;&quot;&gt;Watch&lt;/font&gt;" style="edgeLabel;html=1;align=center;verticalAlign=middle;resizable=0;points=[];" vertex="1" connectable="0" parent="gXG1q5lizFhrm3-i7tg3-54">
          <mxGeometry x="-0.2" y="3" relative="1" as="geometry">
            <mxPoint x="2" y="-8" as="offset" />
          </mxGeometry>
        </mxCell>
        <mxCell id="gXG1q5lizFhrm3-i7tg3-56" value="" style="endArrow=classic;html=1;rounded=0;entryX=1;entryY=1.067;entryDx=0;entryDy=0;entryPerimeter=0;fillColor=#e3c800;strokeColor=#B09500;strokeWidth=3;shape=link;" edge="1" parent="WIyWlLk6GJQsqaUBKTNV-1" source="gXG1q5lizFhrm3-i7tg3-44" target="gXG1q5lizFhrm3-i7tg3-35">
          <mxGeometry width="50" height="50" relative="1" as="geometry">
            <mxPoint x="350" y="860" as="sourcePoint" />
            <mxPoint x="400" y="810" as="targetPoint" />
          </mxGeometry>
        </mxCell>
        <mxCell id="gXG1q5lizFhrm3-i7tg3-57" value="&lt;font style=&quot;font-size: 16px;&quot;&gt;Watch&lt;/font&gt;" style="edgeLabel;html=1;align=center;verticalAlign=middle;resizable=0;points=[];" vertex="1" connectable="0" parent="gXG1q5lizFhrm3-i7tg3-56">
          <mxGeometry x="0.091" y="3" relative="1" as="geometry">
            <mxPoint x="-7" y="-88" as="offset" />
          </mxGeometry>
        </mxCell>
        <mxCell id="gXG1q5lizFhrm3-i7tg3-58" value="" style="endArrow=classic;html=1;rounded=0;entryX=1;entryY=0.5;entryDx=0;entryDy=0;fillColor=#e3c800;strokeColor=#B09500;strokeWidth=3;shape=link;" edge="1" parent="WIyWlLk6GJQsqaUBKTNV-1" target="gXG1q5lizFhrm3-i7tg3-16">
          <mxGeometry width="50" height="50" relative="1" as="geometry">
            <mxPoint x="290" y="630" as="sourcePoint" />
            <mxPoint x="350" y="590" as="targetPoint" />
          </mxGeometry>
        </mxCell>
        <mxCell id="gXG1q5lizFhrm3-i7tg3-59" value="" style="endArrow=classic;html=1;rounded=0;entryX=0;entryY=0.5;entryDx=0;entryDy=0;fillColor=#e3c800;strokeColor=#B09500;strokeWidth=3;shape=link;" edge="1" parent="WIyWlLk6GJQsqaUBKTNV-1">
          <mxGeometry width="50" height="50" relative="1" as="geometry">
            <mxPoint x="290" y="630" as="sourcePoint" />
            <mxPoint x="430" y="550" as="targetPoint" />
          </mxGeometry>
        </mxCell>
        <mxCell id="gXG1q5lizFhrm3-i7tg3-60" value="Text" style="edgeLabel;html=1;align=center;verticalAlign=middle;resizable=0;points=[];" vertex="1" connectable="0" parent="gXG1q5lizFhrm3-i7tg3-59">
          <mxGeometry x="-0.5954" y="7" relative="1" as="geometry">
            <mxPoint as="offset" />
          </mxGeometry>
        </mxCell>
        <mxCell id="gXG1q5lizFhrm3-i7tg3-61" value="&lt;u&gt;&lt;font style=&quot;font-size: 16px;&quot;&gt;managed ResourceQuota Controller&lt;/font&gt;&lt;/u&gt;" style="rounded=1;whiteSpace=wrap;html=1;fillColor=#0050ef;fontColor=#ffffff;strokeColor=#001DBC;" vertex="1" parent="WIyWlLk6GJQsqaUBKTNV-1">
          <mxGeometry x="490" y="890" width="120" height="60" as="geometry" />
        </mxCell>
        <mxCell id="gXG1q5lizFhrm3-i7tg3-62" value="" style="endArrow=none;html=1;rounded=0;entryX=0.44;entryY=1.1;entryDx=0;entryDy=0;entryPerimeter=0;fillColor=#6a00ff;strokeColor=#3700CC;shape=link;strokeWidth=3;" edge="1" parent="WIyWlLk6GJQsqaUBKTNV-1" target="gXG1q5lizFhrm3-i7tg3-40">
          <mxGeometry width="50" height="50" relative="1" as="geometry">
            <mxPoint x="590" y="890" as="sourcePoint" />
            <mxPoint x="640" y="840" as="targetPoint" />
          </mxGeometry>
        </mxCell>
        <mxCell id="gXG1q5lizFhrm3-i7tg3-63" value="&lt;font style=&quot;font-size: 16px;&quot;&gt;Watch&lt;/font&gt;" style="edgeLabel;html=1;align=center;verticalAlign=middle;resizable=0;points=[];" vertex="1" connectable="0" parent="gXG1q5lizFhrm3-i7tg3-62">
          <mxGeometry x="0.0655" y="-2" relative="1" as="geometry">
            <mxPoint x="20" y="35" as="offset" />
          </mxGeometry>
        </mxCell>
        <mxCell id="gXG1q5lizFhrm3-i7tg3-64" value="" style="endArrow=classic;html=1;rounded=0;entryX=0.575;entryY=1.1;entryDx=0;entryDy=0;entryPerimeter=0;shape=flexArrow;fillColor=#6a00ff;strokeColor=#3700CC;" edge="1" parent="WIyWlLk6GJQsqaUBKTNV-1" target="gXG1q5lizFhrm3-i7tg3-43">
          <mxGeometry width="50" height="50" relative="1" as="geometry">
            <mxPoint x="560" y="890" as="sourcePoint" />
            <mxPoint x="610" y="840" as="targetPoint" />
          </mxGeometry>
        </mxCell>
        <mxCell id="gXG1q5lizFhrm3-i7tg3-65" value="&lt;font style=&quot;font-size: 15px;&quot;&gt;Create/Update if&amp;nbsp;&lt;br&gt;according to unscheduable &lt;br&gt;resources(sevices,pvc..) in&lt;br&gt;Applications ResourceQuota&lt;/font&gt;" style="edgeLabel;html=1;align=center;verticalAlign=middle;resizable=0;points=[];" vertex="1" connectable="0" parent="gXG1q5lizFhrm3-i7tg3-64">
          <mxGeometry x="-0.1273" relative="1" as="geometry">
            <mxPoint x="-91" y="72" as="offset" />
          </mxGeometry>
        </mxCell>
        <mxCell id="gXG1q5lizFhrm3-i7tg3-66" value="" style="endArrow=classic;html=1;rounded=0;entryX=-0.02;entryY=0.2;entryDx=0;entryDy=0;entryPerimeter=0;fillColor=#e3c800;strokeColor=default;strokeWidth=1;exitX=0.25;exitY=0;exitDx=0;exitDy=0;shadow=0;shape=flexArrow;" edge="1" parent="WIyWlLk6GJQsqaUBKTNV-1" source="gXG1q5lizFhrm3-i7tg3-44" target="gXG1q5lizFhrm3-i7tg3-39">
          <mxGeometry width="50" height="50" relative="1" as="geometry">
            <mxPoint x="285" y="869" as="sourcePoint" />
            <mxPoint x="586" y="620" as="targetPoint" />
            <Array as="points">
              <mxPoint x="190" y="870" />
            </Array>
          </mxGeometry>
        </mxCell>
        <mxCell id="gXG1q5lizFhrm3-i7tg3-67" value="&lt;font style=&quot;font-size: 15px;&quot;&gt;Reevaluate all pods and&lt;br style=&quot;border-color: var(--border-color);&quot;&gt;managed ResourceQuotas&lt;br style=&quot;border-color: var(--border-color);&quot;&gt;to Update Applications&lt;br&gt;&amp;nbsp;ResourceQuota Status&lt;/font&gt;" style="edgeLabel;html=1;align=center;verticalAlign=middle;resizable=0;points=[];" vertex="1" connectable="0" parent="gXG1q5lizFhrm3-i7tg3-66">
          <mxGeometry x="0.2452" relative="1" as="geometry">
            <mxPoint x="42" y="-60" as="offset" />
          </mxGeometry>
        </mxCell>
      </root>
    </mxGraphModel>
  </diagram>
</mxfile>
